<svg width="1646" height="1646" viewBox="0 0 1646 1646" fill="none" xmlns="http://www.w3.org/2000/svg">
<path d="M831.836 501.207C823.775 494.247 816.876 488.551 811.861 484.625C788.466 466.325 775.163 467.609 759.944 486.347C759.766 486.576 746.7 503.397 723.587 532.117C751.557 530.83 774.913 521.202 791.718 511.173C806.738 502.225 814.86 500.666 831.836 501.207Z" fill="black" fill-opacity="0.9"/>
<path d="M537.911 771.473C538.936 775.952 543.288 779.707 547.602 779.867C554.794 780.132 566.502 780.562 580.789 781.075L585.983 804.145C586.853 808.011 590.575 811.144 594.297 811.144H620.769C624.49 811.144 628.213 808.009 629.083 804.145L633.858 782.932C643.727 783.267 653.75 783.602 663.593 783.92L668.508 805.751C669.378 809.617 673.1 812.75 676.822 812.75H703.293C707.015 812.75 710.737 809.616 711.608 805.751L716.166 785.503C725.116 785.747 734.065 786.039 743.012 786.363L747.557 806.554C748.428 810.42 752.149 813.553 755.872 813.553H782.343C786.064 813.553 789.788 810.418 790.658 806.554L794.718 788.519C842.483 790.705 890.239 793.189 938.041 794.086L942.927 815.793C943.798 819.659 947.519 822.792 951.241 822.792H977.714C981.435 822.792 985.158 819.657 986.028 815.793L990.856 794.343C1000.31 794.248 1009.76 794.069 1019.21 793.798L1023.98 814.99C1024.85 818.855 1028.57 821.988 1032.3 821.988H1058.77C1062.49 821.988 1066.21 818.854 1067.08 814.99L1072.44 791.184C1080.85 790.573 1089.26 789.862 1097.65 789.013L1103.5 814.99C1104.37 818.856 1108.09 821.989 1111.81 821.989H1138.28C1142.01 821.989 1145.73 818.855 1146.6 814.99L1154.25 780.991C1165.26 778.933 1176.21 776.573 1187.09 773.828C1197.99 771.078 1208.81 767.94 1219.51 764.397C1223.63 763.031 1226.96 758.12 1226.96 753.509C1226.98 740.946 1227 718.584 1227 718.108C1227 711.48 1224.41 703.127 1221.45 697.38C1214.66 684.208 1200.53 677.76 1187.96 672.816C1168.93 665.335 1149.04 660.378 1129.36 655.308C1120.96 653.143 1112.61 650.886 1104.27 648.438C1091.77 644.767 1079.31 640.962 1066.83 637.193C1041.77 629.624 1016.95 621.458 992.638 611.778C995.095 604.688 991.724 595.025 982.511 595.025C976.835 595.025 973.384 598.697 972.137 603.172C964.104 599.62 956.133 595.88 948.243 591.896C952.035 584.778 948.921 573.333 938.894 573.333C933.151 573.333 929.685 577.093 928.477 581.64C920.019 577.149 911.475 572.439 903.128 567.385C908.002 560.448 905.142 547.625 894.527 547.625C889.147 547.625 885.763 550.923 884.362 555.078C876.815 549.667 869.645 543.858 863.102 537.541C858.467 533.066 854.1 528.24 848.861 524.538C833.573 513.738 812.366 518.473 797.351 527.535C774.423 541.351 722.759 558.127 678.794 543.866C660.32 537.874 642.544 527.426 629.075 512.496C622.218 504.895 617.005 496.243 612.296 487.023C608.181 478.964 603.54 470.411 594.14 469.155C575.6 466.678 558.599 494.522 548.447 507.572C526.803 535.399 512.877 570.165 510.399 606.352C508.043 640.776 516.591 676.603 523.77 709.965C528.199 730.543 533.218 750.961 537.911 771.473ZM545.845 556.47C610.544 604.024 707.206 632.881 823.358 656.514C940.624 680.379 991.226 749.045 1001.41 764.657C992.464 764.501 983.518 764.26 974.575 763.947C956.908 763.33 939.252 762.455 921.601 761.415C878.021 758.85 834.483 755.291 790.944 752.173C787.65 751.955 784.38 751.739 781.123 751.525C762.768 709.896 726.154 684.168 688.542 664.826C650.468 645.247 605.581 633.26 574.922 600.853C565.535 590.931 557.528 579.609 550.927 567.4C550.187 566.029 544.907 558.215 545.845 556.47Z" fill="black" fill-opacity="0.9"/>
<path d="M637.191 1481.95L637.161 1481.94L637.131 1481.94C448.378 1434.42 285.255 1295.73 203.573 1119.81L203.546 1119.75L203.518 1119.69C185.6 1082.37 171.933 1043.51 161.696 1003.87C163.363 1003.93 165.28 1003.61 167.243 1002.5C170.984 1000.38 172.128 996.876 172.482 995.513L172.923 993.813L172.759 992.065C169.795 960.5 165.87 929.397 161.919 907.273C159.968 896.343 157.92 887.078 155.834 881.001C155.299 879.442 154.699 877.907 154.017 876.515C153.524 875.511 152.806 874.193 151.78 872.923C156.505 794.102 174.428 687.784 203.322 610.269L203.671 609.334L203.828 608.35C204.004 607.243 204.151 606.013 204.158 604.79C204.162 604.17 204.132 603.372 203.989 602.489C203.855 601.658 203.556 600.332 202.783 598.906C202.431 598.256 201.954 597.542 201.327 596.848C205.168 589.717 209.094 582.382 213.089 574.92C233.863 536.116 256.486 493.856 278.417 458.791L278.468 458.708L278.518 458.625C287.037 444.399 295.073 431.625 302.268 420.188C307.036 412.609 311.434 405.617 315.359 399.178C320.118 391.373 324.131 384.448 326.785 378.883C328.102 376.12 329.258 373.339 329.962 370.739C330.545 368.584 331.409 364.563 329.857 360.508L326.832 352.608C330.854 348.175 334.935 343.79 339.076 339.456L339.104 339.427L339.131 339.397C426.885 246.045 542.57 177.773 668.214 147.392C393.592 256.588 175.378 538.491 175.378 844.5C175.378 1149 405.23 1391.8 673.768 1490.21C661.504 1487.83 649.307 1485.08 637.191 1481.95ZM149.951 884.571C149.845 884.746 149.035 886.085 147.283 887.127C146.871 885.715 146.464 884.458 146.063 883.367L149.955 884.564L149.951 884.571ZM194.232 611.972C194.232 611.96 194.233 611.948 194.235 611.935C194.232 612.04 194.226 612.059 194.232 611.972Z" stroke="black" stroke-opacity="0.8" stroke-width="20"/>
<g filter="url(#filter0_i)">
<path d="M1229.74 240.904C1385.09 349.684 1488.79 512.447 1521.72 699.214C1551.88 870.272 1518.45 1045.95 1427.59 1193.88C1421.57 1203.66 1529.57 983.331 1493.57 1054.46C1483.79 1048.44 1414.27 1181.89 1420.28 1172.1C1505.81 1032.85 1550.11 860.248 1521.72 699.214C1457.72 336.256 1062.17 73.7182 699.213 137.717C336.256 201.717 75.7909 582.836 139.79 945.794C203.789 1308.75 550.833 1555.22 913.79 1491.22C1074.83 1462.82 1210.01 1441.87 1311.61 1313.86C1302.61 1306.72 1318.75 1304.87 1311.61 1313.86C1320.61 1321.01 1385.57 1255.08 1378.43 1264.08C1270.5 1400.06 1116.86 1491.55 945.794 1521.72C759.027 1554.65 570.615 1512.88 415.266 1404.1C259.915 1295.32 156.222 1132.56 123.29 945.794C90.3582 759.027 132.129 570.616 240.906 415.263C349.684 259.915 512.447 156.222 699.213 123.29C885.98 90.3583 1074.39 132.129 1229.74 240.904Z" fill="black" fill-opacity="0.8"/>
</g>
<path d="M579.7 1107C588.5 1107 597 1105.2 605.2 1101.6C613.4 1098 621 1092.8 628 1086L635.8 1094.7C611.2 1125.9 583 1141.5 551.2 1141.5C533 1141.5 517.1 1137.4 503.5 1129.2C490.1 1121 479.7 1109.4 472.3 1094.4C464.9 1079.4 461.2 1061.8 461.2 1041.6C461.2 1024.2 464.5 1007.4 471.1 991.2C477.9 974.8 486.5 961.7 496.9 951.9C507.1 945.3 518 940.3 529.6 936.9C541.4 933.3 553 931.5 564.4 931.5C579.6 931.5 593.5 934.8 606.1 941.4C618.9 947.8 629 956.8 636.4 968.4L599.5 999.3C589.1 980.9 576.6 961 562 939.6C553.2 943.2 545.2 949.4 538 958.2C530.8 967 525.1 977.5 520.9 989.7C516.9 1001.9 514.9 1014.6 514.9 1027.8C514.9 1053 520.5 1072.5 531.7 1086.3C543.1 1100.1 559.1 1107 579.7 1107ZM712.406 997.5C732.406 997.5 748.506 1003.4 760.706 1015.2C772.906 1027 779.006 1043.8 779.006 1065.6C779.006 1075 777.306 1084.7 773.906 1094.7C770.706 1104.7 765.906 1113.5 759.506 1121.1C753.106 1127.3 745.606 1132.3 737.006 1136.1C728.606 1139.7 719.706 1141.5 710.306 1141.5C690.306 1141.5 674.206 1135.6 662.006 1123.8C649.806 1112 643.705 1095.2 643.705 1073.4C643.705 1064.2 645.405 1054.6 648.805 1044.6C652.205 1034.6 657.106 1025.8 663.506 1018.2C669.906 1012 677.306 1007 685.705 1003.2C694.306 999.4 703.206 997.5 712.406 997.5ZM686.906 1059C686.906 1078 690.606 1092.2 698.006 1101.6C705.606 1111 716.706 1116.6 731.306 1118.4C732.706 1112.4 733.806 1105.7 734.606 1098.3C735.406 1090.9 735.806 1084.8 735.806 1080C735.806 1060.8 732.006 1046.6 724.406 1037.4C717.006 1028 706.106 1022.4 691.706 1020.6C690.306 1026.8 689.106 1033.6 688.105 1041C687.306 1048.4 686.906 1054.4 686.906 1059ZM960.311 936V994.2L948.611 993.9L948.011 978.9C927.411 964.1 910.311 953.2 896.711 946.2V1126.2L920.411 1126.5V1137H823.211V1126.5L846.911 1126.2V946.2C833.311 953.2 816.211 964.1 795.611 978.9L795.011 993.9L783.311 994.2V936H960.311ZM1107.84 1002V1011.6L1099.14 1011.9L1061.04 1100.4C1050.64 1125 1039.84 1147.5 1028.64 1167.9C1017.64 1188.3 1007.64 1204.5 998.636 1216.5L963.236 1182.9C988.036 1168.7 1010.24 1153.1 1029.84 1136.1L1013.34 1137L967.136 1011.9L958.436 1011.6V1002H1029.54V1011.6L1016.94 1011.9L1044.24 1103.7L1068.84 1011.9L1056.24 1011.6V1002H1107.84ZM1194.12 997.5C1205.72 997.5 1215.92 1000.2 1224.72 1005.6C1233.72 1010.8 1240.62 1018.1 1245.42 1027.5C1250.42 1036.7 1252.92 1047.2 1252.92 1059C1252.92 1069.2 1251.22 1080.1 1247.82 1091.7C1244.62 1103.1 1240.62 1111.9 1235.82 1118.1C1232.02 1123.5 1225.12 1128.8 1215.12 1134C1205.12 1139 1196.72 1141.5 1189.92 1141.5C1184.92 1141.5 1176.82 1140.6 1165.62 1138.8L1166.22 1202.4L1189.32 1203.3V1212H1109.82V1203.3L1120.92 1202.4L1122.42 1019.4L1111.02 1022.1L1108.02 1013.1L1154.52 998.4L1164.12 1032.6L1194.12 997.5ZM1202.52 1118.7C1207.52 1107.3 1210.02 1093.4 1210.02 1077C1210.02 1067.8 1208.52 1059.8 1205.52 1053C1202.52 1046.2 1198.52 1041 1193.52 1037.4C1188.72 1033.8 1183.52 1032 1177.92 1032L1164.72 1045.2L1165.32 1106.1C1178.52 1112.3 1190.92 1116.5 1202.52 1118.7Z" fill="black" fill-opacity="0.9"/>
<defs>
<filter id="filter0_i" x="0" y="0.00012207" width="1645.01" height="1649.01" filterUnits="userSpaceOnUse" color-interpolation-filters="sRGB">
<feFlood flood-opacity="0" result="BackgroundImageFix"/>
<feBlend mode="normal" in="SourceGraphic" in2="BackgroundImageFix" result="shape"/>
<feColorMatrix in="SourceAlpha" type="matrix" values="0 0 0 0 0 0 0 0 0 0 0 0 0 0 0 0 0 0 127 0" result="hardAlpha"/>
<feOffset dy="4"/>
<feGaussianBlur stdDeviation="2"/>
<feComposite in2="hardAlpha" operator="arithmetic" k2="-1" k3="1"/>
<feColorMatrix type="matrix" values="0 0 0 0 0 0 0 0 0 0 0 0 0 0 0 0 0 0 0.25 0"/>
<feBlend mode="normal" in2="shape" result="effect1_innerShadow"/>
</filter>
</defs>
</svg>
